<?xml version="1.0" encoding="utf-8" standalone="no"?>
<!DOCTYPE svg PUBLIC "-//W3C//DTD SVG 1.1//EN"
  "http://www.w3.org/Graphics/SVG/1.1/DTD/svg11.dtd">
<svg xmlns:xlink="http://www.w3.org/1999/xlink" width="460.8pt" height="345.6pt" viewBox="0 0 460.8 345.6" xmlns="http://www.w3.org/2000/svg" version="1.1">
 <metadata>
  <rdf:RDF xmlns:dc="http://purl.org/dc/elements/1.1/" xmlns:cc="http://creativecommons.org/ns#" xmlns:rdf="http://www.w3.org/1999/02/22-rdf-syntax-ns#">
   <cc:Work>
    <dc:type rdf:resource="http://purl.org/dc/dcmitype/StillImage"/>
    <dc:date>2024-01-08T19:33:39.126297</dc:date>
    <dc:format>image/svg+xml</dc:format>
    <dc:creator>
     <cc:Agent>
      <dc:title>Matplotlib v3.7.2, https://matplotlib.org/</dc:title>
     </cc:Agent>
    </dc:creator>
   </cc:Work>
  </rdf:RDF>
 </metadata>
 <defs>
  <style type="text/css">*{stroke-linejoin: round; stroke-linecap: butt}</style>
 </defs>
 <g id="figure_1">
  <g id="patch_1">
   <path d="M 0 345.6 
L 460.8 345.6 
L 460.8 0 
L 0 0 
z
" style="fill: #ffffff"/>
  </g>
  <g id="axes_1">
   <g id="patch_2">
    <path d="M 75.45 278.7 
L 434.741481 278.7 
L 434.741481 38.4 
L 75.45 38.4 
z
" style="fill: #ffffff"/>
   </g>
   <g id="matplotlib.axis_1">
    <g id="xtick_1">
     <g id="line2d_1">
      <defs>
       <path id="m59f37693a0" d="M 0 0 
L 0 9 
" style="stroke: #262626; stroke-width: 1.875"/>
      </defs>
      <g>
       <use xlink:href="#m59f37693a0" x="84.929082" y="278.7" style="fill: #262626; stroke: #262626; stroke-width: 1.875"/>
      </g>
     </g>
     <g id="text_1">
      <!-- 0 -->
      <g style="fill: #262626" transform="translate(80.341309 303.010391) scale(0.165 -0.165)">
       <defs>
        <path id="ArialMT-30" d="M 266 2259 
Q 266 3072 433 3567 
Q 600 4063 929 4331 
Q 1259 4600 1759 4600 
Q 2128 4600 2406 4451 
Q 2684 4303 2865 4023 
Q 3047 3744 3150 3342 
Q 3253 2941 3253 2259 
Q 3253 1453 3087 958 
Q 2922 463 2592 192 
Q 2263 -78 1759 -78 
Q 1097 -78 719 397 
Q 266 969 266 2259 
z
M 844 2259 
Q 844 1131 1108 757 
Q 1372 384 1759 384 
Q 2147 384 2411 759 
Q 2675 1134 2675 2259 
Q 2675 3391 2411 3762 
Q 2147 4134 1753 4134 
Q 1366 4134 1134 3806 
Q 844 3388 844 2259 
z
" transform="scale(0.015625)"/>
       </defs>
       <use xlink:href="#ArialMT-30"/>
      </g>
     </g>
    </g>
    <g id="xtick_2">
     <g id="line2d_2">
      <g>
       <use xlink:href="#m59f37693a0" x="142.031988" y="278.7" style="fill: #262626; stroke: #262626; stroke-width: 1.875"/>
      </g>
     </g>
     <g id="text_2">
      <!-- 25 -->
      <g style="fill: #262626" transform="translate(132.856441 303.010391) scale(0.165 -0.165)">
       <defs>
        <path id="ArialMT-32" d="M 3222 541 
L 3222 0 
L 194 0 
Q 188 203 259 391 
Q 375 700 629 1000 
Q 884 1300 1366 1694 
Q 2113 2306 2375 2664 
Q 2638 3022 2638 3341 
Q 2638 3675 2398 3904 
Q 2159 4134 1775 4134 
Q 1369 4134 1125 3890 
Q 881 3647 878 3216 
L 300 3275 
Q 359 3922 746 4261 
Q 1134 4600 1788 4600 
Q 2447 4600 2831 4234 
Q 3216 3869 3216 3328 
Q 3216 3053 3103 2787 
Q 2991 2522 2730 2228 
Q 2469 1934 1863 1422 
Q 1356 997 1212 845 
Q 1069 694 975 541 
L 3222 541 
z
" transform="scale(0.015625)"/>
        <path id="ArialMT-35" d="M 266 1200 
L 856 1250 
Q 922 819 1161 601 
Q 1400 384 1738 384 
Q 2144 384 2425 690 
Q 2706 997 2706 1503 
Q 2706 1984 2436 2262 
Q 2166 2541 1728 2541 
Q 1456 2541 1237 2417 
Q 1019 2294 894 2097 
L 366 2166 
L 809 4519 
L 3088 4519 
L 3088 3981 
L 1259 3981 
L 1013 2750 
Q 1425 3038 1878 3038 
Q 2478 3038 2890 2622 
Q 3303 2206 3303 1553 
Q 3303 931 2941 478 
Q 2500 -78 1738 -78 
Q 1113 -78 717 272 
Q 322 622 266 1200 
z
" transform="scale(0.015625)"/>
       </defs>
       <use xlink:href="#ArialMT-32"/>
       <use xlink:href="#ArialMT-35" x="55.615234"/>
      </g>
     </g>
    </g>
    <g id="xtick_3">
     <g id="line2d_3">
      <g>
       <use xlink:href="#m59f37693a0" x="199.134893" y="278.7" style="fill: #262626; stroke: #262626; stroke-width: 1.875"/>
      </g>
     </g>
     <g id="text_3">
      <!-- 50 -->
      <g style="fill: #262626" transform="translate(189.959346 303.010391) scale(0.165 -0.165)">
       <use xlink:href="#ArialMT-35"/>
       <use xlink:href="#ArialMT-30" x="55.615234"/>
      </g>
     </g>
    </g>
    <g id="xtick_4">
     <g id="line2d_4">
      <g>
       <use xlink:href="#m59f37693a0" x="256.237799" y="278.7" style="fill: #262626; stroke: #262626; stroke-width: 1.875"/>
      </g>
     </g>
     <g id="text_4">
      <!-- 75 -->
      <g style="fill: #262626" transform="translate(247.062252 303.010391) scale(0.165 -0.165)">
       <defs>
        <path id="ArialMT-37" d="M 303 3981 
L 303 4522 
L 3269 4522 
L 3269 4084 
Q 2831 3619 2401 2847 
Q 1972 2075 1738 1259 
Q 1569 684 1522 0 
L 944 0 
Q 953 541 1156 1306 
Q 1359 2072 1739 2783 
Q 2119 3494 2547 3981 
L 303 3981 
z
" transform="scale(0.015625)"/>
       </defs>
       <use xlink:href="#ArialMT-37"/>
       <use xlink:href="#ArialMT-35" x="55.615234"/>
      </g>
     </g>
    </g>
    <g id="xtick_5">
     <g id="line2d_5">
      <g>
       <use xlink:href="#m59f37693a0" x="313.340704" y="278.7" style="fill: #262626; stroke: #262626; stroke-width: 1.875"/>
      </g>
     </g>
     <g id="text_5">
      <!-- 100 -->
      <g style="fill: #262626" transform="translate(299.577384 303.010391) scale(0.165 -0.165)">
       <defs>
        <path id="ArialMT-31" d="M 2384 0 
L 1822 0 
L 1822 3584 
Q 1619 3391 1289 3197 
Q 959 3003 697 2906 
L 697 3450 
Q 1169 3672 1522 3987 
Q 1875 4303 2022 4600 
L 2384 4600 
L 2384 0 
z
" transform="scale(0.015625)"/>
       </defs>
       <use xlink:href="#ArialMT-31"/>
       <use xlink:href="#ArialMT-30" x="55.615234"/>
       <use xlink:href="#ArialMT-30" x="111.230469"/>
      </g>
     </g>
    </g>
    <g id="xtick_6">
     <g id="line2d_6">
      <g>
       <use xlink:href="#m59f37693a0" x="370.44361" y="278.7" style="fill: #262626; stroke: #262626; stroke-width: 1.875"/>
      </g>
     </g>
     <g id="text_6">
      <!-- 125 -->
      <g style="fill: #262626" transform="translate(356.680289 303.010391) scale(0.165 -0.165)">
       <use xlink:href="#ArialMT-31"/>
       <use xlink:href="#ArialMT-32" x="55.615234"/>
       <use xlink:href="#ArialMT-35" x="111.230469"/>
      </g>
     </g>
    </g>
    <g id="xtick_7">
     <g id="line2d_7">
      <g>
       <use xlink:href="#m59f37693a0" x="427.546515" y="278.7" style="fill: #262626; stroke: #262626; stroke-width: 1.875"/>
      </g>
     </g>
     <g id="text_7">
      <!-- 150 -->
      <g style="fill: #262626" transform="translate(413.783195 303.010391) scale(0.165 -0.165)">
       <use xlink:href="#ArialMT-31"/>
       <use xlink:href="#ArialMT-35" x="55.615234"/>
       <use xlink:href="#ArialMT-30" x="111.230469"/>
      </g>
     </g>
    </g>
    <g id="text_8">
     <!-- Trials -->
     <g style="fill: #262626" transform="translate(233.435272 323.173828) scale(0.18 -0.18)">
      <defs>
       <path id="ArialMT-54" d="M 1659 0 
L 1659 4041 
L 150 4041 
L 150 4581 
L 3781 4581 
L 3781 4041 
L 2266 4041 
L 2266 0 
L 1659 0 
z
" transform="scale(0.015625)"/>
       <path id="ArialMT-72" d="M 416 0 
L 416 3319 
L 922 3319 
L 922 2816 
Q 1116 3169 1280 3281 
Q 1444 3394 1641 3394 
Q 1925 3394 2219 3213 
L 2025 2691 
Q 1819 2813 1613 2813 
Q 1428 2813 1281 2702 
Q 1134 2591 1072 2394 
Q 978 2094 978 1738 
L 978 0 
L 416 0 
z
" transform="scale(0.015625)"/>
       <path id="ArialMT-69" d="M 425 3934 
L 425 4581 
L 988 4581 
L 988 3934 
L 425 3934 
z
M 425 0 
L 425 3319 
L 988 3319 
L 988 0 
L 425 0 
z
" transform="scale(0.015625)"/>
       <path id="ArialMT-61" d="M 2588 409 
Q 2275 144 1986 34 
Q 1697 -75 1366 -75 
Q 819 -75 525 192 
Q 231 459 231 875 
Q 231 1119 342 1320 
Q 453 1522 633 1644 
Q 813 1766 1038 1828 
Q 1203 1872 1538 1913 
Q 2219 1994 2541 2106 
Q 2544 2222 2544 2253 
Q 2544 2597 2384 2738 
Q 2169 2928 1744 2928 
Q 1347 2928 1158 2789 
Q 969 2650 878 2297 
L 328 2372 
Q 403 2725 575 2942 
Q 747 3159 1072 3276 
Q 1397 3394 1825 3394 
Q 2250 3394 2515 3294 
Q 2781 3194 2906 3042 
Q 3031 2891 3081 2659 
Q 3109 2516 3109 2141 
L 3109 1391 
Q 3109 606 3145 398 
Q 3181 191 3288 0 
L 2700 0 
Q 2613 175 2588 409 
z
M 2541 1666 
Q 2234 1541 1622 1453 
Q 1275 1403 1131 1340 
Q 988 1278 909 1158 
Q 831 1038 831 891 
Q 831 666 1001 516 
Q 1172 366 1500 366 
Q 1825 366 2078 508 
Q 2331 650 2450 897 
Q 2541 1088 2541 1459 
L 2541 1666 
z
" transform="scale(0.015625)"/>
       <path id="ArialMT-6c" d="M 409 0 
L 409 4581 
L 972 4581 
L 972 0 
L 409 0 
z
" transform="scale(0.015625)"/>
       <path id="ArialMT-73" d="M 197 991 
L 753 1078 
Q 800 744 1014 566 
Q 1228 388 1613 388 
Q 2000 388 2187 545 
Q 2375 703 2375 916 
Q 2375 1106 2209 1216 
Q 2094 1291 1634 1406 
Q 1016 1563 777 1677 
Q 538 1791 414 1992 
Q 291 2194 291 2438 
Q 291 2659 392 2848 
Q 494 3038 669 3163 
Q 800 3259 1026 3326 
Q 1253 3394 1513 3394 
Q 1903 3394 2198 3281 
Q 2494 3169 2634 2976 
Q 2775 2784 2828 2463 
L 2278 2388 
Q 2241 2644 2061 2787 
Q 1881 2931 1553 2931 
Q 1166 2931 1000 2803 
Q 834 2675 834 2503 
Q 834 2394 903 2306 
Q 972 2216 1119 2156 
Q 1203 2125 1616 2013 
Q 2213 1853 2448 1751 
Q 2684 1650 2818 1456 
Q 2953 1263 2953 975 
Q 2953 694 2789 445 
Q 2625 197 2315 61 
Q 2006 -75 1616 -75 
Q 969 -75 630 194 
Q 291 463 197 991 
z
" transform="scale(0.015625)"/>
      </defs>
      <use xlink:href="#ArialMT-54"/>
      <use xlink:href="#ArialMT-72" x="57.333984"/>
      <use xlink:href="#ArialMT-69" x="90.634766"/>
      <use xlink:href="#ArialMT-61" x="112.851562"/>
      <use xlink:href="#ArialMT-6c" x="168.466797"/>
      <use xlink:href="#ArialMT-73" x="190.683594"/>
     </g>
    </g>
   </g>
   <g id="matplotlib.axis_2">
    <g id="ytick_1">
     <g id="line2d_8">
      <defs>
       <path id="m7edc556d12" d="M 0 0 
L -9 0 
" style="stroke: #262626; stroke-width: 1.875"/>
      </defs>
      <g>
       <use xlink:href="#m7edc556d12" x="75.45" y="271.342776" style="fill: #262626; stroke: #262626; stroke-width: 1.875"/>
      </g>
     </g>
     <g id="text_9">
      <!-- 0.2 -->
      <g style="fill: #262626" transform="translate(40.015 277.247971) scale(0.165 -0.165)">
       <defs>
        <path id="ArialMT-2e" d="M 581 0 
L 581 641 
L 1222 641 
L 1222 0 
L 581 0 
z
" transform="scale(0.015625)"/>
       </defs>
       <use xlink:href="#ArialMT-30"/>
       <use xlink:href="#ArialMT-2e" x="55.615234"/>
       <use xlink:href="#ArialMT-32" x="83.398438"/>
      </g>
     </g>
    </g>
    <g id="ytick_2">
     <g id="line2d_9">
      <g>
       <use xlink:href="#m7edc556d12" x="75.45" y="234.08793" style="fill: #262626; stroke: #262626; stroke-width: 1.875"/>
      </g>
     </g>
     <g id="text_10">
      <!-- 0.3 -->
      <g style="fill: #262626" transform="translate(40.015 239.993126) scale(0.165 -0.165)">
       <defs>
        <path id="ArialMT-33" d="M 269 1209 
L 831 1284 
Q 928 806 1161 595 
Q 1394 384 1728 384 
Q 2125 384 2398 659 
Q 2672 934 2672 1341 
Q 2672 1728 2419 1979 
Q 2166 2231 1775 2231 
Q 1616 2231 1378 2169 
L 1441 2663 
Q 1497 2656 1531 2656 
Q 1891 2656 2178 2843 
Q 2466 3031 2466 3422 
Q 2466 3731 2256 3934 
Q 2047 4138 1716 4138 
Q 1388 4138 1169 3931 
Q 950 3725 888 3313 
L 325 3413 
Q 428 3978 793 4289 
Q 1159 4600 1703 4600 
Q 2078 4600 2393 4439 
Q 2709 4278 2876 4000 
Q 3044 3722 3044 3409 
Q 3044 3113 2884 2869 
Q 2725 2625 2413 2481 
Q 2819 2388 3044 2092 
Q 3269 1797 3269 1353 
Q 3269 753 2831 336 
Q 2394 -81 1725 -81 
Q 1122 -81 723 278 
Q 325 638 269 1209 
z
" transform="scale(0.015625)"/>
       </defs>
       <use xlink:href="#ArialMT-30"/>
       <use xlink:href="#ArialMT-2e" x="55.615234"/>
       <use xlink:href="#ArialMT-33" x="83.398438"/>
      </g>
     </g>
    </g>
    <g id="ytick_3">
     <g id="line2d_10">
      <g>
       <use xlink:href="#m7edc556d12" x="75.45" y="196.833085" style="fill: #262626; stroke: #262626; stroke-width: 1.875"/>
      </g>
     </g>
     <g id="text_11">
      <!-- 0.4 -->
      <g style="fill: #262626" transform="translate(40.015 202.738281) scale(0.165 -0.165)">
       <defs>
        <path id="ArialMT-34" d="M 2069 0 
L 2069 1097 
L 81 1097 
L 81 1613 
L 2172 4581 
L 2631 4581 
L 2631 1613 
L 3250 1613 
L 3250 1097 
L 2631 1097 
L 2631 0 
L 2069 0 
z
M 2069 1613 
L 2069 3678 
L 634 1613 
L 2069 1613 
z
" transform="scale(0.015625)"/>
       </defs>
       <use xlink:href="#ArialMT-30"/>
       <use xlink:href="#ArialMT-2e" x="55.615234"/>
       <use xlink:href="#ArialMT-34" x="83.398438"/>
      </g>
     </g>
    </g>
    <g id="ytick_4">
     <g id="line2d_11">
      <g>
       <use xlink:href="#m7edc556d12" x="75.45" y="159.57824" style="fill: #262626; stroke: #262626; stroke-width: 1.875"/>
      </g>
     </g>
     <g id="text_12">
      <!-- 0.5 -->
      <g style="fill: #262626" transform="translate(40.015 165.483435) scale(0.165 -0.165)">
       <use xlink:href="#ArialMT-30"/>
       <use xlink:href="#ArialMT-2e" x="55.615234"/>
       <use xlink:href="#ArialMT-35" x="83.398438"/>
      </g>
     </g>
    </g>
    <g id="ytick_5">
     <g id="line2d_12">
      <g>
       <use xlink:href="#m7edc556d12" x="75.45" y="122.323395" style="fill: #262626; stroke: #262626; stroke-width: 1.875"/>
      </g>
     </g>
     <g id="text_13">
      <!-- 0.6 -->
      <g style="fill: #262626" transform="translate(40.015 128.22859) scale(0.165 -0.165)">
       <defs>
        <path id="ArialMT-36" d="M 3184 3459 
L 2625 3416 
Q 2550 3747 2413 3897 
Q 2184 4138 1850 4138 
Q 1581 4138 1378 3988 
Q 1113 3794 959 3422 
Q 806 3050 800 2363 
Q 1003 2672 1297 2822 
Q 1591 2972 1913 2972 
Q 2475 2972 2870 2558 
Q 3266 2144 3266 1488 
Q 3266 1056 3080 686 
Q 2894 316 2569 119 
Q 2244 -78 1831 -78 
Q 1128 -78 684 439 
Q 241 956 241 2144 
Q 241 3472 731 4075 
Q 1159 4600 1884 4600 
Q 2425 4600 2770 4297 
Q 3116 3994 3184 3459 
z
M 888 1484 
Q 888 1194 1011 928 
Q 1134 663 1356 523 
Q 1578 384 1822 384 
Q 2178 384 2434 671 
Q 2691 959 2691 1453 
Q 2691 1928 2437 2201 
Q 2184 2475 1800 2475 
Q 1419 2475 1153 2201 
Q 888 1928 888 1484 
z
" transform="scale(0.015625)"/>
       </defs>
       <use xlink:href="#ArialMT-30"/>
       <use xlink:href="#ArialMT-2e" x="55.615234"/>
       <use xlink:href="#ArialMT-36" x="83.398438"/>
      </g>
     </g>
    </g>
    <g id="ytick_6">
     <g id="line2d_13">
      <g>
       <use xlink:href="#m7edc556d12" x="75.45" y="85.06855" style="fill: #262626; stroke: #262626; stroke-width: 1.875"/>
      </g>
     </g>
     <g id="text_14">
      <!-- 0.7 -->
      <g style="fill: #262626" transform="translate(40.015 90.973745) scale(0.165 -0.165)">
       <use xlink:href="#ArialMT-30"/>
       <use xlink:href="#ArialMT-2e" x="55.615234"/>
       <use xlink:href="#ArialMT-37" x="83.398438"/>
      </g>
     </g>
    </g>
    <g id="ytick_7">
     <g id="line2d_14">
      <g>
       <use xlink:href="#m7edc556d12" x="75.45" y="47.813705" style="fill: #262626; stroke: #262626; stroke-width: 1.875"/>
      </g>
     </g>
     <g id="text_15">
      <!-- 0.8 -->
      <g style="fill: #262626" transform="translate(40.015 53.7189) scale(0.165 -0.165)">
       <defs>
        <path id="ArialMT-38" d="M 1131 2484 
Q 781 2613 612 2850 
Q 444 3088 444 3419 
Q 444 3919 803 4259 
Q 1163 4600 1759 4600 
Q 2359 4600 2725 4251 
Q 3091 3903 3091 3403 
Q 3091 3084 2923 2848 
Q 2756 2613 2416 2484 
Q 2838 2347 3058 2040 
Q 3278 1734 3278 1309 
Q 3278 722 2862 322 
Q 2447 -78 1769 -78 
Q 1091 -78 675 323 
Q 259 725 259 1325 
Q 259 1772 486 2073 
Q 713 2375 1131 2484 
z
M 1019 3438 
Q 1019 3113 1228 2906 
Q 1438 2700 1772 2700 
Q 2097 2700 2305 2904 
Q 2513 3109 2513 3406 
Q 2513 3716 2298 3927 
Q 2084 4138 1766 4138 
Q 1444 4138 1231 3931 
Q 1019 3725 1019 3438 
z
M 838 1322 
Q 838 1081 952 856 
Q 1066 631 1291 507 
Q 1516 384 1775 384 
Q 2178 384 2440 643 
Q 2703 903 2703 1303 
Q 2703 1709 2433 1975 
Q 2163 2241 1756 2241 
Q 1359 2241 1098 1978 
Q 838 1716 838 1322 
z
" transform="scale(0.015625)"/>
       </defs>
       <use xlink:href="#ArialMT-30"/>
       <use xlink:href="#ArialMT-2e" x="55.615234"/>
       <use xlink:href="#ArialMT-38" x="83.398438"/>
      </g>
     </g>
    </g>
    <g id="text_16">
     <!-- Entropy (bits) -->
     <g style="fill: #262626" transform="translate(32.226563 212.063437) rotate(-90) scale(0.18 -0.18)">
      <defs>
       <path id="ArialMT-45" d="M 506 0 
L 506 4581 
L 3819 4581 
L 3819 4041 
L 1113 4041 
L 1113 2638 
L 3647 2638 
L 3647 2100 
L 1113 2100 
L 1113 541 
L 3925 541 
L 3925 0 
L 506 0 
z
" transform="scale(0.015625)"/>
       <path id="ArialMT-6e" d="M 422 0 
L 422 3319 
L 928 3319 
L 928 2847 
Q 1294 3394 1984 3394 
Q 2284 3394 2536 3286 
Q 2788 3178 2913 3003 
Q 3038 2828 3088 2588 
Q 3119 2431 3119 2041 
L 3119 0 
L 2556 0 
L 2556 2019 
Q 2556 2363 2490 2533 
Q 2425 2703 2258 2804 
Q 2091 2906 1866 2906 
Q 1506 2906 1245 2678 
Q 984 2450 984 1813 
L 984 0 
L 422 0 
z
" transform="scale(0.015625)"/>
       <path id="ArialMT-74" d="M 1650 503 
L 1731 6 
Q 1494 -44 1306 -44 
Q 1000 -44 831 53 
Q 663 150 594 308 
Q 525 466 525 972 
L 525 2881 
L 113 2881 
L 113 3319 
L 525 3319 
L 525 4141 
L 1084 4478 
L 1084 3319 
L 1650 3319 
L 1650 2881 
L 1084 2881 
L 1084 941 
Q 1084 700 1114 631 
Q 1144 563 1211 522 
Q 1278 481 1403 481 
Q 1497 481 1650 503 
z
" transform="scale(0.015625)"/>
       <path id="ArialMT-6f" d="M 213 1659 
Q 213 2581 725 3025 
Q 1153 3394 1769 3394 
Q 2453 3394 2887 2945 
Q 3322 2497 3322 1706 
Q 3322 1066 3130 698 
Q 2938 331 2570 128 
Q 2203 -75 1769 -75 
Q 1072 -75 642 372 
Q 213 819 213 1659 
z
M 791 1659 
Q 791 1022 1069 705 
Q 1347 388 1769 388 
Q 2188 388 2466 706 
Q 2744 1025 2744 1678 
Q 2744 2294 2464 2611 
Q 2184 2928 1769 2928 
Q 1347 2928 1069 2612 
Q 791 2297 791 1659 
z
" transform="scale(0.015625)"/>
       <path id="ArialMT-70" d="M 422 -1272 
L 422 3319 
L 934 3319 
L 934 2888 
Q 1116 3141 1344 3267 
Q 1572 3394 1897 3394 
Q 2322 3394 2647 3175 
Q 2972 2956 3137 2557 
Q 3303 2159 3303 1684 
Q 3303 1175 3120 767 
Q 2938 359 2589 142 
Q 2241 -75 1856 -75 
Q 1575 -75 1351 44 
Q 1128 163 984 344 
L 984 -1272 
L 422 -1272 
z
M 931 1641 
Q 931 1000 1190 694 
Q 1450 388 1819 388 
Q 2194 388 2461 705 
Q 2728 1022 2728 1688 
Q 2728 2322 2467 2637 
Q 2206 2953 1844 2953 
Q 1484 2953 1207 2617 
Q 931 2281 931 1641 
z
" transform="scale(0.015625)"/>
       <path id="ArialMT-79" d="M 397 -1278 
L 334 -750 
Q 519 -800 656 -800 
Q 844 -800 956 -737 
Q 1069 -675 1141 -563 
Q 1194 -478 1313 -144 
Q 1328 -97 1363 -6 
L 103 3319 
L 709 3319 
L 1400 1397 
Q 1534 1031 1641 628 
Q 1738 1016 1872 1384 
L 2581 3319 
L 3144 3319 
L 1881 -56 
Q 1678 -603 1566 -809 
Q 1416 -1088 1222 -1217 
Q 1028 -1347 759 -1347 
Q 597 -1347 397 -1278 
z
" transform="scale(0.015625)"/>
       <path id="ArialMT-20" transform="scale(0.015625)"/>
       <path id="ArialMT-28" d="M 1497 -1347 
Q 1031 -759 709 28 
Q 388 816 388 1659 
Q 388 2403 628 3084 
Q 909 3875 1497 4659 
L 1900 4659 
Q 1522 4009 1400 3731 
Q 1209 3300 1100 2831 
Q 966 2247 966 1656 
Q 966 153 1900 -1347 
L 1497 -1347 
z
" transform="scale(0.015625)"/>
       <path id="ArialMT-62" d="M 941 0 
L 419 0 
L 419 4581 
L 981 4581 
L 981 2947 
Q 1338 3394 1891 3394 
Q 2197 3394 2470 3270 
Q 2744 3147 2920 2923 
Q 3097 2700 3197 2384 
Q 3297 2069 3297 1709 
Q 3297 856 2875 390 
Q 2453 -75 1863 -75 
Q 1275 -75 941 416 
L 941 0 
z
M 934 1684 
Q 934 1088 1097 822 
Q 1363 388 1816 388 
Q 2184 388 2453 708 
Q 2722 1028 2722 1663 
Q 2722 2313 2464 2622 
Q 2206 2931 1841 2931 
Q 1472 2931 1203 2611 
Q 934 2291 934 1684 
z
" transform="scale(0.015625)"/>
       <path id="ArialMT-29" d="M 791 -1347 
L 388 -1347 
Q 1322 153 1322 1656 
Q 1322 2244 1188 2822 
Q 1081 3291 891 3722 
Q 769 4003 388 4659 
L 791 4659 
Q 1378 3875 1659 3084 
Q 1900 2403 1900 1659 
Q 1900 816 1576 28 
Q 1253 -759 791 -1347 
z
" transform="scale(0.015625)"/>
      </defs>
      <use xlink:href="#ArialMT-45"/>
      <use xlink:href="#ArialMT-6e" x="66.699219"/>
      <use xlink:href="#ArialMT-74" x="122.314453"/>
      <use xlink:href="#ArialMT-72" x="150.097656"/>
      <use xlink:href="#ArialMT-6f" x="183.398438"/>
      <use xlink:href="#ArialMT-70" x="239.013672"/>
      <use xlink:href="#ArialMT-79" x="294.628906"/>
      <use xlink:href="#ArialMT-20" x="344.628906"/>
      <use xlink:href="#ArialMT-28" x="372.412109"/>
      <use xlink:href="#ArialMT-62" x="405.712891"/>
      <use xlink:href="#ArialMT-69" x="461.328125"/>
      <use xlink:href="#ArialMT-74" x="483.544922"/>
      <use xlink:href="#ArialMT-73" x="511.328125"/>
      <use xlink:href="#ArialMT-29" x="561.328125"/>
     </g>
    </g>
   </g>
   <g id="PolyCollection_1">
    <defs>
     <path id="mc861f4a10f" d="M 91.781431 -288.143549 
L 91.781431 -296.277273 
L 94.065547 -283.05017 
L 96.349663 -276.513125 
L 98.63378 -269.499573 
L 100.917896 -261.518031 
L 103.202012 -254.205677 
L 105.486128 -244.813948 
L 107.770244 -241.47838 
L 110.054361 -233.575138 
L 112.338477 -226.987157 
L 114.622593 -225.18293 
L 116.906709 -221.789009 
L 119.190826 -218.762074 
L 121.474942 -214.204123 
L 123.759058 -209.639415 
L 126.043174 -205.325045 
L 128.32729 -202.449449 
L 130.611407 -197.107576 
L 132.895523 -191.593491 
L 135.179639 -189.786388 
L 137.463755 -186.420966 
L 139.747872 -183.637033 
L 142.031988 -180.033395 
L 144.316104 -176.201781 
L 146.60022 -171.069954 
L 148.884336 -171.214273 
L 151.168453 -166.816315 
L 153.452569 -164.846962 
L 155.736685 -164.278376 
L 158.020801 -162.663688 
L 160.304918 -162.211443 
L 162.589034 -159.228386 
L 164.87315 -157.644095 
L 167.157266 -157.727281 
L 169.441382 -153.027605 
L 171.725499 -148.713678 
L 174.009615 -146.951596 
L 176.293731 -143.467974 
L 178.577847 -140.729173 
L 180.861964 -140.030581 
L 183.14608 -138.754646 
L 185.430196 -139.397948 
L 187.714312 -138.239535 
L 189.998428 -135.862182 
L 192.282545 -134.955265 
L 194.566661 -134.984193 
L 196.850777 -133.204527 
L 199.134893 -130.116131 
L 201.419009 -129.217495 
L 203.703126 -127.981305 
L 205.987242 -126.630749 
L 208.271358 -126.678867 
L 210.555474 -125.614727 
L 212.839591 -125.224486 
L 215.123707 -124.943336 
L 217.407823 -124.25646 
L 219.691939 -125.280839 
L 221.976055 -123.724496 
L 224.260172 -122.919308 
L 226.544288 -123.17441 
L 228.828404 -124.386299 
L 231.11252 -123.895622 
L 233.396637 -121.547571 
L 235.680753 -119.728002 
L 237.964869 -118.759385 
L 240.248985 -116.687163 
L 242.533101 -114.480763 
L 244.817218 -111.953642 
L 247.101334 -111.052294 
L 249.38545 -109.899727 
L 251.669566 -109.988477 
L 253.953683 -108.533083 
L 256.237799 -108.679471 
L 258.521915 -110.427263 
L 260.806031 -109.535009 
L 263.090147 -109.405219 
L 265.374264 -108.393625 
L 267.65838 -108.306595 
L 269.942496 -107.69043 
L 272.226612 -107.171673 
L 274.510728 -106.650081 
L 276.794845 -106.772107 
L 279.078961 -104.369458 
L 281.363077 -102.614885 
L 283.647193 -101.958159 
L 285.93131 -102.302451 
L 288.215426 -102.560511 
L 290.499542 -101.927145 
L 292.783658 -102.384538 
L 295.067774 -101.515057 
L 297.351891 -100.161218 
L 299.636007 -99.8899 
L 301.920123 -97.767651 
L 304.204239 -97.72515 
L 306.488356 -98.940639 
L 308.772472 -98.733919 
L 311.056588 -99.273414 
L 313.340704 -98.919914 
L 315.62482 -97.176637 
L 317.908937 -97.51446 
L 320.193053 -98.149585 
L 322.477169 -97.628035 
L 324.761285 -96.823407 
L 327.045402 -97.861305 
L 329.329518 -97.269748 
L 331.613634 -96.36964 
L 333.89775 -94.513646 
L 336.181866 -93.980168 
L 338.465983 -93.069151 
L 340.750099 -91.976711 
L 343.034215 -93.008561 
L 345.318331 -93.661517 
L 347.602447 -94.392296 
L 349.886564 -94.903351 
L 352.17068 -96.008509 
L 354.454796 -95.853982 
L 356.738912 -95.219584 
L 359.023029 -96.725897 
L 361.307145 -97.545536 
L 363.591261 -97.305784 
L 365.875377 -96.4914 
L 368.159493 -95.529553 
L 370.44361 -95.738172 
L 372.727726 -96.220128 
L 375.011842 -95.224556 
L 377.295958 -93.202414 
L 379.580075 -92.548397 
L 381.864191 -93.244315 
L 384.148307 -93.042911 
L 386.432423 -91.835479 
L 388.716539 -92.179272 
L 391.000656 -90.789689 
L 393.284772 -88.606839 
L 395.568888 -87.553722 
L 397.853004 -87.745781 
L 400.137121 -86.757319 
L 402.421237 -86.630255 
L 404.705353 -85.956451 
L 406.989469 -86.925586 
L 409.273585 -87.194483 
L 411.557702 -89.294087 
L 413.841818 -88.859841 
L 416.125934 -90.079039 
L 418.41005 -88.783327 
L 418.41005 -80.649602 
L 418.41005 -80.649602 
L 416.125934 -81.945315 
L 413.841818 -80.726117 
L 411.557702 -81.160363 
L 409.273585 -79.060759 
L 406.989469 -78.791861 
L 404.705353 -77.822727 
L 402.421237 -78.496531 
L 400.137121 -78.623595 
L 397.853004 -79.612057 
L 395.568888 -79.419998 
L 393.284772 -80.473115 
L 391.000656 -82.655965 
L 388.716539 -84.045548 
L 386.432423 -83.701755 
L 384.148307 -84.909187 
L 381.864191 -85.110591 
L 379.580075 -84.414673 
L 377.295958 -85.06869 
L 375.011842 -87.090832 
L 372.727726 -88.086404 
L 370.44361 -87.604447 
L 368.159493 -87.395829 
L 365.875377 -88.357676 
L 363.591261 -89.17206 
L 361.307145 -89.411812 
L 359.023029 -88.592173 
L 356.738912 -87.08586 
L 354.454796 -87.720257 
L 352.17068 -87.874785 
L 349.886564 -86.769626 
L 347.602447 -86.258571 
L 345.318331 -85.527792 
L 343.034215 -84.874836 
L 340.750099 -83.842987 
L 338.465983 -84.935426 
L 336.181866 -85.846444 
L 333.89775 -86.379922 
L 331.613634 -88.235916 
L 329.329518 -89.136024 
L 327.045402 -89.727581 
L 324.761285 -88.689683 
L 322.477169 -89.494311 
L 320.193053 -90.015861 
L 317.908937 -89.380736 
L 315.62482 -89.042913 
L 313.340704 -90.786189 
L 311.056588 -91.13969 
L 308.772472 -90.600195 
L 306.488356 -90.806915 
L 304.204239 -89.591425 
L 301.920123 -89.633927 
L 299.636007 -91.756176 
L 297.351891 -92.027494 
L 295.067774 -93.381333 
L 292.783658 -94.250814 
L 290.499542 -93.79342 
L 288.215426 -94.426787 
L 285.93131 -94.168727 
L 283.647193 -93.824434 
L 281.363077 -94.48116 
L 279.078961 -96.235734 
L 276.794845 -98.638383 
L 274.510728 -98.516357 
L 272.226612 -99.037949 
L 269.942496 -99.556706 
L 267.65838 -100.172871 
L 265.374264 -100.259901 
L 263.090147 -101.271495 
L 260.806031 -101.401285 
L 258.521915 -102.293539 
L 256.237799 -100.545747 
L 253.953683 -100.399359 
L 251.669566 -101.854753 
L 249.38545 -101.766003 
L 247.101334 -102.91857 
L 244.817218 -103.819918 
L 242.533101 -106.347039 
L 240.248985 -108.553438 
L 237.964869 -110.625661 
L 235.680753 -111.594278 
L 233.396637 -113.413847 
L 231.11252 -115.761898 
L 228.828404 -116.252575 
L 226.544288 -115.040686 
L 224.260172 -114.785584 
L 221.976055 -115.590772 
L 219.691939 -117.147115 
L 217.407823 -116.122736 
L 215.123707 -116.809612 
L 212.839591 -117.090762 
L 210.555474 -117.481003 
L 208.271358 -118.545143 
L 205.987242 -118.497025 
L 203.703126 -119.847581 
L 201.419009 -121.083771 
L 199.134893 -121.982407 
L 196.850777 -125.070803 
L 194.566661 -126.850469 
L 192.282545 -126.821541 
L 189.998428 -127.728458 
L 187.714312 -130.105811 
L 185.430196 -131.264224 
L 183.14608 -130.620922 
L 180.861964 -131.896857 
L 178.577847 -132.595449 
L 176.293731 -135.33425 
L 174.009615 -138.817872 
L 171.725499 -140.579954 
L 169.441382 -144.893881 
L 167.157266 -149.593557 
L 164.87315 -149.510371 
L 162.589034 -151.094662 
L 160.304918 -154.077719 
L 158.020801 -154.529963 
L 155.736685 -156.144652 
L 153.452569 -156.713238 
L 151.168453 -158.682591 
L 148.884336 -163.080549 
L 146.60022 -162.93623 
L 144.316104 -168.068057 
L 142.031988 -171.899671 
L 139.747872 -175.503309 
L 137.463755 -178.287242 
L 135.179639 -181.652664 
L 132.895523 -183.459766 
L 130.611407 -188.973852 
L 128.32729 -194.315725 
L 126.043174 -197.191321 
L 123.759058 -201.505691 
L 121.474942 -206.070399 
L 119.190826 -210.628349 
L 116.906709 -213.655285 
L 114.622593 -217.049206 
L 112.338477 -218.853433 
L 110.054361 -225.441413 
L 107.770244 -233.344656 
L 105.486128 -236.680224 
L 103.202012 -246.071953 
L 100.917896 -253.384307 
L 98.63378 -261.365849 
L 96.349663 -268.379401 
L 94.065547 -274.916445 
L 91.781431 -288.143549 
z
" style="stroke: #1a1a1a; stroke-opacity: 0.2; stroke-width: 1.5"/>
    </defs>
    <g clip-path="url(#p915ede5aa0)">
     <use xlink:href="#mc861f4a10f" x="0" y="345.6" style="fill: #1a1a1a; fill-opacity: 0.2; stroke: #1a1a1a; stroke-opacity: 0.2; stroke-width: 1.5"/>
    </g>
   </g>
   <g id="line2d_15">
    <path d="M 91.781431 53.389589 
L 94.065547 66.616692 
L 96.349663 73.153737 
L 98.63378 80.167289 
L 100.917896 88.148831 
L 103.202012 95.461185 
L 105.486128 104.852914 
L 107.770244 108.188482 
L 110.054361 116.091724 
L 112.338477 122.679705 
L 114.622593 124.483932 
L 116.906709 127.877853 
L 119.190826 130.904789 
L 126.043174 144.341817 
L 128.32729 147.217413 
L 132.895523 158.073371 
L 135.179639 159.880474 
L 137.463755 163.245896 
L 139.747872 166.029829 
L 142.031988 169.633467 
L 144.316104 173.465081 
L 146.60022 178.596908 
L 148.884336 178.452589 
L 151.168453 182.850547 
L 153.452569 184.8199 
L 155.736685 185.388486 
L 158.020801 187.003175 
L 160.304918 187.455419 
L 162.589034 190.438476 
L 164.87315 192.022767 
L 167.157266 191.939581 
L 169.441382 196.639257 
L 171.725499 200.953184 
L 174.009615 202.715266 
L 176.293731 206.198888 
L 178.577847 208.937689 
L 180.861964 209.636281 
L 183.14608 210.912216 
L 185.430196 210.268914 
L 187.714312 211.427327 
L 189.998428 213.80468 
L 192.282545 214.711597 
L 194.566661 214.682669 
L 196.850777 216.462335 
L 199.134893 219.550731 
L 201.419009 220.449367 
L 205.987242 223.036113 
L 208.271358 222.987995 
L 210.555474 224.052135 
L 215.123707 224.723526 
L 217.407823 225.410402 
L 219.691939 224.386023 
L 221.976055 225.942366 
L 224.260172 226.747554 
L 226.544288 226.492452 
L 228.828404 225.280563 
L 231.11252 225.77124 
L 233.396637 228.119291 
L 235.680753 229.93886 
L 237.964869 230.907477 
L 242.533101 235.186099 
L 244.817218 237.71322 
L 247.101334 238.614568 
L 249.38545 239.767135 
L 251.669566 239.678385 
L 253.953683 241.133779 
L 256.237799 240.987391 
L 258.521915 239.239599 
L 260.806031 240.131853 
L 263.090147 240.261643 
L 265.374264 241.273237 
L 267.65838 241.360267 
L 272.226612 242.495189 
L 274.510728 243.016781 
L 276.794845 242.894755 
L 279.078961 245.297404 
L 281.363077 247.051978 
L 283.647193 247.708703 
L 288.215426 247.106351 
L 290.499542 247.739717 
L 292.783658 247.282324 
L 295.067774 248.151805 
L 297.351891 249.505644 
L 299.636007 249.776962 
L 301.920123 251.899211 
L 304.204239 251.941713 
L 306.488356 250.726223 
L 308.772472 250.932943 
L 311.056588 250.393448 
L 313.340704 250.746948 
L 315.62482 252.490225 
L 317.908937 252.152402 
L 320.193053 251.517277 
L 322.477169 252.038827 
L 324.761285 252.843455 
L 327.045402 251.805557 
L 329.329518 252.397114 
L 331.613634 253.297222 
L 333.89775 255.153216 
L 336.181866 255.686694 
L 338.465983 256.597711 
L 340.750099 257.690151 
L 343.034215 256.658301 
L 349.886564 254.763512 
L 352.17068 253.658353 
L 354.454796 253.812881 
L 356.738912 254.447278 
L 359.023029 252.940965 
L 361.307145 252.121326 
L 363.591261 252.361078 
L 365.875377 253.175462 
L 368.159493 254.137309 
L 370.44361 253.92869 
L 372.727726 253.446734 
L 375.011842 254.442306 
L 377.295958 256.464448 
L 379.580075 257.118465 
L 381.864191 256.422547 
L 384.148307 256.623951 
L 386.432423 257.831383 
L 388.716539 257.48759 
L 391.000656 258.877173 
L 393.284772 261.060023 
L 395.568888 262.11314 
L 397.853004 261.921081 
L 400.137121 262.909543 
L 402.421237 263.036607 
L 404.705353 263.710411 
L 406.989469 262.741277 
L 409.273585 262.472379 
L 411.557702 260.372775 
L 413.841818 260.807021 
L 416.125934 259.587823 
L 418.41005 260.883536 
L 418.41005 260.883536 
" clip-path="url(#p915ede5aa0)" style="fill: none; stroke: #1a1a1a; stroke-width: 2.25; stroke-linecap: round"/>
   </g>
   <g id="patch_3">
    <path d="M 75.45 278.7 
L 75.45 38.4 
" style="fill: none; stroke: #262626; stroke-width: 1.875; stroke-linejoin: miter; stroke-linecap: square"/>
   </g>
   <g id="patch_4">
    <path d="M 75.45 278.7 
L 434.741481 278.7 
" style="fill: none; stroke: #262626; stroke-width: 1.875; stroke-linejoin: miter; stroke-linecap: square"/>
   </g>
   <g id="text_17">
    <!-- Variation in choice taken -->
    <g style="fill: #262626" transform="translate(157.705897 32.4) scale(0.18 -0.18)">
     <defs>
      <path id="ArialMT-56" d="M 1803 0 
L 28 4581 
L 684 4581 
L 1875 1253 
Q 2019 853 2116 503 
Q 2222 878 2363 1253 
L 3600 4581 
L 4219 4581 
L 2425 0 
L 1803 0 
z
" transform="scale(0.015625)"/>
      <path id="ArialMT-63" d="M 2588 1216 
L 3141 1144 
Q 3050 572 2676 248 
Q 2303 -75 1759 -75 
Q 1078 -75 664 370 
Q 250 816 250 1647 
Q 250 2184 428 2587 
Q 606 2991 970 3192 
Q 1334 3394 1763 3394 
Q 2303 3394 2647 3120 
Q 2991 2847 3088 2344 
L 2541 2259 
Q 2463 2594 2264 2762 
Q 2066 2931 1784 2931 
Q 1359 2931 1093 2626 
Q 828 2322 828 1663 
Q 828 994 1084 691 
Q 1341 388 1753 388 
Q 2084 388 2306 591 
Q 2528 794 2588 1216 
z
" transform="scale(0.015625)"/>
      <path id="ArialMT-68" d="M 422 0 
L 422 4581 
L 984 4581 
L 984 2938 
Q 1378 3394 1978 3394 
Q 2347 3394 2619 3248 
Q 2891 3103 3008 2847 
Q 3125 2591 3125 2103 
L 3125 0 
L 2563 0 
L 2563 2103 
Q 2563 2525 2380 2717 
Q 2197 2909 1863 2909 
Q 1613 2909 1392 2779 
Q 1172 2650 1078 2428 
Q 984 2206 984 1816 
L 984 0 
L 422 0 
z
" transform="scale(0.015625)"/>
      <path id="ArialMT-65" d="M 2694 1069 
L 3275 997 
Q 3138 488 2766 206 
Q 2394 -75 1816 -75 
Q 1088 -75 661 373 
Q 234 822 234 1631 
Q 234 2469 665 2931 
Q 1097 3394 1784 3394 
Q 2450 3394 2872 2941 
Q 3294 2488 3294 1666 
Q 3294 1616 3291 1516 
L 816 1516 
Q 847 969 1125 678 
Q 1403 388 1819 388 
Q 2128 388 2347 550 
Q 2566 713 2694 1069 
z
M 847 1978 
L 2700 1978 
Q 2663 2397 2488 2606 
Q 2219 2931 1791 2931 
Q 1403 2931 1139 2672 
Q 875 2413 847 1978 
z
" transform="scale(0.015625)"/>
      <path id="ArialMT-6b" d="M 425 0 
L 425 4581 
L 988 4581 
L 988 1969 
L 2319 3319 
L 3047 3319 
L 1778 2088 
L 3175 0 
L 2481 0 
L 1384 1697 
L 988 1316 
L 988 0 
L 425 0 
z
" transform="scale(0.015625)"/>
     </defs>
     <use xlink:href="#ArialMT-56"/>
     <use xlink:href="#ArialMT-61" x="59.324219"/>
     <use xlink:href="#ArialMT-72" x="114.939453"/>
     <use xlink:href="#ArialMT-69" x="148.240234"/>
     <use xlink:href="#ArialMT-61" x="170.457031"/>
     <use xlink:href="#ArialMT-74" x="226.072266"/>
     <use xlink:href="#ArialMT-69" x="253.855469"/>
     <use xlink:href="#ArialMT-6f" x="276.072266"/>
     <use xlink:href="#ArialMT-6e" x="331.6875"/>
     <use xlink:href="#ArialMT-20" x="387.302734"/>
     <use xlink:href="#ArialMT-69" x="415.085938"/>
     <use xlink:href="#ArialMT-6e" x="437.302734"/>
     <use xlink:href="#ArialMT-20" x="492.917969"/>
     <use xlink:href="#ArialMT-63" x="520.701172"/>
     <use xlink:href="#ArialMT-68" x="570.701172"/>
     <use xlink:href="#ArialMT-6f" x="626.316406"/>
     <use xlink:href="#ArialMT-69" x="681.931641"/>
     <use xlink:href="#ArialMT-63" x="704.148438"/>
     <use xlink:href="#ArialMT-65" x="754.148438"/>
     <use xlink:href="#ArialMT-20" x="809.763672"/>
     <use xlink:href="#ArialMT-74" x="837.546875"/>
     <use xlink:href="#ArialMT-61" x="865.330078"/>
     <use xlink:href="#ArialMT-6b" x="920.945312"/>
     <use xlink:href="#ArialMT-65" x="970.945312"/>
     <use xlink:href="#ArialMT-6e" x="1026.560547"/>
    </g>
   </g>
  </g>
 </g>
 <defs>
  <clipPath id="p915ede5aa0">
   <rect x="75.45" y="38.4" width="359.291481" height="240.3"/>
  </clipPath>
 </defs>
</svg>
