<?xml version="1.0" encoding="utf-8" standalone="no"?>
<!DOCTYPE svg PUBLIC "-//W3C//DTD SVG 1.1//EN"
  "http://www.w3.org/Graphics/SVG/1.1/DTD/svg11.dtd">
<svg xmlns:xlink="http://www.w3.org/1999/xlink" width="460.8pt" height="345.6pt" viewBox="0 0 460.8 345.6" xmlns="http://www.w3.org/2000/svg" version="1.1">
 <metadata>
  <rdf:RDF xmlns:dc="http://purl.org/dc/elements/1.1/" xmlns:cc="http://creativecommons.org/ns#" xmlns:rdf="http://www.w3.org/1999/02/22-rdf-syntax-ns#">
   <cc:Work>
    <dc:type rdf:resource="http://purl.org/dc/dcmitype/StillImage"/>
    <dc:date>2024-01-08T19:27:27.196491</dc:date>
    <dc:format>image/svg+xml</dc:format>
    <dc:creator>
     <cc:Agent>
      <dc:title>Matplotlib v3.7.2, https://matplotlib.org/</dc:title>
     </cc:Agent>
    </dc:creator>
   </cc:Work>
  </rdf:RDF>
 </metadata>
 <defs>
  <style type="text/css">*{stroke-linejoin: round; stroke-linecap: butt}</style>
 </defs>
 <g id="figure_1">
  <g id="patch_1">
   <path d="M 0 345.6 
L 460.8 345.6 
L 460.8 0 
L 0 0 
z
" style="fill: #ffffff"/>
  </g>
  <g id="axes_1">
   <g id="patch_2">
    <path d="M 84.63 278.7 
L 441.36 278.7 
L 441.36 38.4 
L 84.63 38.4 
z
" style="fill: #ffffff"/>
   </g>
   <g id="matplotlib.axis_1">
    <g id="xtick_1">
     <g id="line2d_1">
      <defs>
       <path id="m92244d9ad3" d="M 0 0 
L 0 9 
" style="stroke: #262626; stroke-width: 1.875"/>
      </defs>
      <g>
       <use xlink:href="#m92244d9ad3" x="100.845" y="278.7" style="fill: #262626; stroke: #262626; stroke-width: 1.875"/>
      </g>
     </g>
     <g id="text_1">
      <!-- 0 -->
      <g style="fill: #262626" transform="translate(96.257227 303.010391) scale(0.165 -0.165)">
       <defs>
        <path id="ArialMT-30" d="M 266 2259 
Q 266 3072 433 3567 
Q 600 4063 929 4331 
Q 1259 4600 1759 4600 
Q 2128 4600 2406 4451 
Q 2684 4303 2865 4023 
Q 3047 3744 3150 3342 
Q 3253 2941 3253 2259 
Q 3253 1453 3087 958 
Q 2922 463 2592 192 
Q 2263 -78 1759 -78 
Q 1097 -78 719 397 
Q 266 969 266 2259 
z
M 844 2259 
Q 844 1131 1108 757 
Q 1372 384 1759 384 
Q 2147 384 2411 759 
Q 2675 1134 2675 2259 
Q 2675 3391 2411 3762 
Q 2147 4134 1753 4134 
Q 1366 4134 1134 3806 
Q 844 3388 844 2259 
z
" transform="scale(0.015625)"/>
       </defs>
       <use xlink:href="#ArialMT-30"/>
      </g>
     </g>
    </g>
    <g id="xtick_2">
     <g id="line2d_2">
      <g>
       <use xlink:href="#m92244d9ad3" x="155.257752" y="278.7" style="fill: #262626; stroke: #262626; stroke-width: 1.875"/>
      </g>
     </g>
     <g id="text_2">
      <!-- 25 -->
      <g style="fill: #262626" transform="translate(146.082205 303.010391) scale(0.165 -0.165)">
       <defs>
        <path id="ArialMT-32" d="M 3222 541 
L 3222 0 
L 194 0 
Q 188 203 259 391 
Q 375 700 629 1000 
Q 884 1300 1366 1694 
Q 2113 2306 2375 2664 
Q 2638 3022 2638 3341 
Q 2638 3675 2398 3904 
Q 2159 4134 1775 4134 
Q 1369 4134 1125 3890 
Q 881 3647 878 3216 
L 300 3275 
Q 359 3922 746 4261 
Q 1134 4600 1788 4600 
Q 2447 4600 2831 4234 
Q 3216 3869 3216 3328 
Q 3216 3053 3103 2787 
Q 2991 2522 2730 2228 
Q 2469 1934 1863 1422 
Q 1356 997 1212 845 
Q 1069 694 975 541 
L 3222 541 
z
" transform="scale(0.015625)"/>
        <path id="ArialMT-35" d="M 266 1200 
L 856 1250 
Q 922 819 1161 601 
Q 1400 384 1738 384 
Q 2144 384 2425 690 
Q 2706 997 2706 1503 
Q 2706 1984 2436 2262 
Q 2166 2541 1728 2541 
Q 1456 2541 1237 2417 
Q 1019 2294 894 2097 
L 366 2166 
L 809 4519 
L 3088 4519 
L 3088 3981 
L 1259 3981 
L 1013 2750 
Q 1425 3038 1878 3038 
Q 2478 3038 2890 2622 
Q 3303 2206 3303 1553 
Q 3303 931 2941 478 
Q 2500 -78 1738 -78 
Q 1113 -78 717 272 
Q 322 622 266 1200 
z
" transform="scale(0.015625)"/>
       </defs>
       <use xlink:href="#ArialMT-32"/>
       <use xlink:href="#ArialMT-35" x="55.615234"/>
      </g>
     </g>
    </g>
    <g id="xtick_3">
     <g id="line2d_3">
      <g>
       <use xlink:href="#m92244d9ad3" x="209.670503" y="278.7" style="fill: #262626; stroke: #262626; stroke-width: 1.875"/>
      </g>
     </g>
     <g id="text_3">
      <!-- 50 -->
      <g style="fill: #262626" transform="translate(200.494956 303.010391) scale(0.165 -0.165)">
       <use xlink:href="#ArialMT-35"/>
       <use xlink:href="#ArialMT-30" x="55.615234"/>
      </g>
     </g>
    </g>
    <g id="xtick_4">
     <g id="line2d_4">
      <g>
       <use xlink:href="#m92244d9ad3" x="264.083255" y="278.7" style="fill: #262626; stroke: #262626; stroke-width: 1.875"/>
      </g>
     </g>
     <g id="text_4">
      <!-- 75 -->
      <g style="fill: #262626" transform="translate(254.907708 303.010391) scale(0.165 -0.165)">
       <defs>
        <path id="ArialMT-37" d="M 303 3981 
L 303 4522 
L 3269 4522 
L 3269 4084 
Q 2831 3619 2401 2847 
Q 1972 2075 1738 1259 
Q 1569 684 1522 0 
L 944 0 
Q 953 541 1156 1306 
Q 1359 2072 1739 2783 
Q 2119 3494 2547 3981 
L 303 3981 
z
" transform="scale(0.015625)"/>
       </defs>
       <use xlink:href="#ArialMT-37"/>
       <use xlink:href="#ArialMT-35" x="55.615234"/>
      </g>
     </g>
    </g>
    <g id="xtick_5">
     <g id="line2d_5">
      <g>
       <use xlink:href="#m92244d9ad3" x="318.496007" y="278.7" style="fill: #262626; stroke: #262626; stroke-width: 1.875"/>
      </g>
     </g>
     <g id="text_5">
      <!-- 100 -->
      <g style="fill: #262626" transform="translate(304.732686 303.010391) scale(0.165 -0.165)">
       <defs>
        <path id="ArialMT-31" d="M 2384 0 
L 1822 0 
L 1822 3584 
Q 1619 3391 1289 3197 
Q 959 3003 697 2906 
L 697 3450 
Q 1169 3672 1522 3987 
Q 1875 4303 2022 4600 
L 2384 4600 
L 2384 0 
z
" transform="scale(0.015625)"/>
       </defs>
       <use xlink:href="#ArialMT-31"/>
       <use xlink:href="#ArialMT-30" x="55.615234"/>
       <use xlink:href="#ArialMT-30" x="111.230469"/>
      </g>
     </g>
    </g>
    <g id="xtick_6">
     <g id="line2d_6">
      <g>
       <use xlink:href="#m92244d9ad3" x="372.908758" y="278.7" style="fill: #262626; stroke: #262626; stroke-width: 1.875"/>
      </g>
     </g>
     <g id="text_6">
      <!-- 125 -->
      <g style="fill: #262626" transform="translate(359.145438 303.010391) scale(0.165 -0.165)">
       <use xlink:href="#ArialMT-31"/>
       <use xlink:href="#ArialMT-32" x="55.615234"/>
       <use xlink:href="#ArialMT-35" x="111.230469"/>
      </g>
     </g>
    </g>
    <g id="xtick_7">
     <g id="line2d_7">
      <g>
       <use xlink:href="#m92244d9ad3" x="427.32151" y="278.7" style="fill: #262626; stroke: #262626; stroke-width: 1.875"/>
      </g>
     </g>
     <g id="text_7">
      <!-- 150 -->
      <g style="fill: #262626" transform="translate(413.55819 303.010391) scale(0.165 -0.165)">
       <use xlink:href="#ArialMT-31"/>
       <use xlink:href="#ArialMT-35" x="55.615234"/>
       <use xlink:href="#ArialMT-30" x="111.230469"/>
      </g>
     </g>
    </g>
    <g id="text_8">
     <!-- Trials -->
     <g style="fill: #262626" transform="translate(241.334531 323.173828) scale(0.18 -0.18)">
      <defs>
       <path id="ArialMT-54" d="M 1659 0 
L 1659 4041 
L 150 4041 
L 150 4581 
L 3781 4581 
L 3781 4041 
L 2266 4041 
L 2266 0 
L 1659 0 
z
" transform="scale(0.015625)"/>
       <path id="ArialMT-72" d="M 416 0 
L 416 3319 
L 922 3319 
L 922 2816 
Q 1116 3169 1280 3281 
Q 1444 3394 1641 3394 
Q 1925 3394 2219 3213 
L 2025 2691 
Q 1819 2813 1613 2813 
Q 1428 2813 1281 2702 
Q 1134 2591 1072 2394 
Q 978 2094 978 1738 
L 978 0 
L 416 0 
z
" transform="scale(0.015625)"/>
       <path id="ArialMT-69" d="M 425 3934 
L 425 4581 
L 988 4581 
L 988 3934 
L 425 3934 
z
M 425 0 
L 425 3319 
L 988 3319 
L 988 0 
L 425 0 
z
" transform="scale(0.015625)"/>
       <path id="ArialMT-61" d="M 2588 409 
Q 2275 144 1986 34 
Q 1697 -75 1366 -75 
Q 819 -75 525 192 
Q 231 459 231 875 
Q 231 1119 342 1320 
Q 453 1522 633 1644 
Q 813 1766 1038 1828 
Q 1203 1872 1538 1913 
Q 2219 1994 2541 2106 
Q 2544 2222 2544 2253 
Q 2544 2597 2384 2738 
Q 2169 2928 1744 2928 
Q 1347 2928 1158 2789 
Q 969 2650 878 2297 
L 328 2372 
Q 403 2725 575 2942 
Q 747 3159 1072 3276 
Q 1397 3394 1825 3394 
Q 2250 3394 2515 3294 
Q 2781 3194 2906 3042 
Q 3031 2891 3081 2659 
Q 3109 2516 3109 2141 
L 3109 1391 
Q 3109 606 3145 398 
Q 3181 191 3288 0 
L 2700 0 
Q 2613 175 2588 409 
z
M 2541 1666 
Q 2234 1541 1622 1453 
Q 1275 1403 1131 1340 
Q 988 1278 909 1158 
Q 831 1038 831 891 
Q 831 666 1001 516 
Q 1172 366 1500 366 
Q 1825 366 2078 508 
Q 2331 650 2450 897 
Q 2541 1088 2541 1459 
L 2541 1666 
z
" transform="scale(0.015625)"/>
       <path id="ArialMT-6c" d="M 409 0 
L 409 4581 
L 972 4581 
L 972 0 
L 409 0 
z
" transform="scale(0.015625)"/>
       <path id="ArialMT-73" d="M 197 991 
L 753 1078 
Q 800 744 1014 566 
Q 1228 388 1613 388 
Q 2000 388 2187 545 
Q 2375 703 2375 916 
Q 2375 1106 2209 1216 
Q 2094 1291 1634 1406 
Q 1016 1563 777 1677 
Q 538 1791 414 1992 
Q 291 2194 291 2438 
Q 291 2659 392 2848 
Q 494 3038 669 3163 
Q 800 3259 1026 3326 
Q 1253 3394 1513 3394 
Q 1903 3394 2198 3281 
Q 2494 3169 2634 2976 
Q 2775 2784 2828 2463 
L 2278 2388 
Q 2241 2644 2061 2787 
Q 1881 2931 1553 2931 
Q 1166 2931 1000 2803 
Q 834 2675 834 2503 
Q 834 2394 903 2306 
Q 972 2216 1119 2156 
Q 1203 2125 1616 2013 
Q 2213 1853 2448 1751 
Q 2684 1650 2818 1456 
Q 2953 1263 2953 975 
Q 2953 694 2789 445 
Q 2625 197 2315 61 
Q 2006 -75 1616 -75 
Q 969 -75 630 194 
Q 291 463 197 991 
z
" transform="scale(0.015625)"/>
      </defs>
      <use xlink:href="#ArialMT-54"/>
      <use xlink:href="#ArialMT-72" x="57.333984"/>
      <use xlink:href="#ArialMT-69" x="90.634766"/>
      <use xlink:href="#ArialMT-61" x="112.851562"/>
      <use xlink:href="#ArialMT-6c" x="168.466797"/>
      <use xlink:href="#ArialMT-73" x="190.683594"/>
     </g>
    </g>
   </g>
   <g id="matplotlib.axis_2">
    <g id="ytick_1">
     <g id="line2d_8">
      <defs>
       <path id="mb5cecb1a99" d="M 0 0 
L -9 0 
" style="stroke: #262626; stroke-width: 1.875"/>
      </defs>
      <g>
       <use xlink:href="#mb5cecb1a99" x="84.63" y="235.092669" style="fill: #262626; stroke: #262626; stroke-width: 1.875"/>
      </g>
     </g>
     <g id="text_9">
      <!-- 0.65 -->
      <g style="fill: #262626" transform="translate(40.019453 240.997864) scale(0.165 -0.165)">
       <defs>
        <path id="ArialMT-2e" d="M 581 0 
L 581 641 
L 1222 641 
L 1222 0 
L 581 0 
z
" transform="scale(0.015625)"/>
        <path id="ArialMT-36" d="M 3184 3459 
L 2625 3416 
Q 2550 3747 2413 3897 
Q 2184 4138 1850 4138 
Q 1581 4138 1378 3988 
Q 1113 3794 959 3422 
Q 806 3050 800 2363 
Q 1003 2672 1297 2822 
Q 1591 2972 1913 2972 
Q 2475 2972 2870 2558 
Q 3266 2144 3266 1488 
Q 3266 1056 3080 686 
Q 2894 316 2569 119 
Q 2244 -78 1831 -78 
Q 1128 -78 684 439 
Q 241 956 241 2144 
Q 241 3472 731 4075 
Q 1159 4600 1884 4600 
Q 2425 4600 2770 4297 
Q 3116 3994 3184 3459 
z
M 888 1484 
Q 888 1194 1011 928 
Q 1134 663 1356 523 
Q 1578 384 1822 384 
Q 2178 384 2434 671 
Q 2691 959 2691 1453 
Q 2691 1928 2437 2201 
Q 2184 2475 1800 2475 
Q 1419 2475 1153 2201 
Q 888 1928 888 1484 
z
" transform="scale(0.015625)"/>
       </defs>
       <use xlink:href="#ArialMT-30"/>
       <use xlink:href="#ArialMT-2e" x="55.615234"/>
       <use xlink:href="#ArialMT-36" x="83.398438"/>
       <use xlink:href="#ArialMT-35" x="139.013672"/>
      </g>
     </g>
    </g>
    <g id="ytick_2">
     <g id="line2d_9">
      <g>
       <use xlink:href="#mb5cecb1a99" x="84.63" y="183.06855" style="fill: #262626; stroke: #262626; stroke-width: 1.875"/>
      </g>
     </g>
     <g id="text_10">
      <!-- 0.70 -->
      <g style="fill: #262626" transform="translate(40.019453 188.973745) scale(0.165 -0.165)">
       <use xlink:href="#ArialMT-30"/>
       <use xlink:href="#ArialMT-2e" x="55.615234"/>
       <use xlink:href="#ArialMT-37" x="83.398438"/>
       <use xlink:href="#ArialMT-30" x="139.013672"/>
      </g>
     </g>
    </g>
    <g id="ytick_3">
     <g id="line2d_10">
      <g>
       <use xlink:href="#mb5cecb1a99" x="84.63" y="131.044431" style="fill: #262626; stroke: #262626; stroke-width: 1.875"/>
      </g>
     </g>
     <g id="text_11">
      <!-- 0.75 -->
      <g style="fill: #262626" transform="translate(40.019453 136.949626) scale(0.165 -0.165)">
       <use xlink:href="#ArialMT-30"/>
       <use xlink:href="#ArialMT-2e" x="55.615234"/>
       <use xlink:href="#ArialMT-37" x="83.398438"/>
       <use xlink:href="#ArialMT-35" x="139.013672"/>
      </g>
     </g>
    </g>
    <g id="ytick_4">
     <g id="line2d_11">
      <g>
       <use xlink:href="#mb5cecb1a99" x="84.63" y="79.020312" style="fill: #262626; stroke: #262626; stroke-width: 1.875"/>
      </g>
     </g>
     <g id="text_12">
      <!-- 0.80 -->
      <g style="fill: #262626" transform="translate(40.019453 84.925507) scale(0.165 -0.165)">
       <defs>
        <path id="ArialMT-38" d="M 1131 2484 
Q 781 2613 612 2850 
Q 444 3088 444 3419 
Q 444 3919 803 4259 
Q 1163 4600 1759 4600 
Q 2359 4600 2725 4251 
Q 3091 3903 3091 3403 
Q 3091 3084 2923 2848 
Q 2756 2613 2416 2484 
Q 2838 2347 3058 2040 
Q 3278 1734 3278 1309 
Q 3278 722 2862 322 
Q 2447 -78 1769 -78 
Q 1091 -78 675 323 
Q 259 725 259 1325 
Q 259 1772 486 2073 
Q 713 2375 1131 2484 
z
M 1019 3438 
Q 1019 3113 1228 2906 
Q 1438 2700 1772 2700 
Q 2097 2700 2305 2904 
Q 2513 3109 2513 3406 
Q 2513 3716 2298 3927 
Q 2084 4138 1766 4138 
Q 1444 4138 1231 3931 
Q 1019 3725 1019 3438 
z
M 838 1322 
Q 838 1081 952 856 
Q 1066 631 1291 507 
Q 1516 384 1775 384 
Q 2178 384 2440 643 
Q 2703 903 2703 1303 
Q 2703 1709 2433 1975 
Q 2163 2241 1756 2241 
Q 1359 2241 1098 1978 
Q 838 1716 838 1322 
z
" transform="scale(0.015625)"/>
       </defs>
       <use xlink:href="#ArialMT-30"/>
       <use xlink:href="#ArialMT-2e" x="55.615234"/>
       <use xlink:href="#ArialMT-38" x="83.398438"/>
       <use xlink:href="#ArialMT-30" x="139.013672"/>
      </g>
     </g>
    </g>
    <g id="text_13">
     <!-- Performance -->
     <g style="fill: #262626" transform="translate(32.441953 210.067969) rotate(-90) scale(0.18 -0.18)">
      <defs>
       <path id="ArialMT-50" d="M 494 0 
L 494 4581 
L 2222 4581 
Q 2678 4581 2919 4538 
Q 3256 4481 3484 4323 
Q 3713 4166 3852 3881 
Q 3991 3597 3991 3256 
Q 3991 2672 3619 2267 
Q 3247 1863 2275 1863 
L 1100 1863 
L 1100 0 
L 494 0 
z
M 1100 2403 
L 2284 2403 
Q 2872 2403 3119 2622 
Q 3366 2841 3366 3238 
Q 3366 3525 3220 3729 
Q 3075 3934 2838 4000 
Q 2684 4041 2272 4041 
L 1100 4041 
L 1100 2403 
z
" transform="scale(0.015625)"/>
       <path id="ArialMT-65" d="M 2694 1069 
L 3275 997 
Q 3138 488 2766 206 
Q 2394 -75 1816 -75 
Q 1088 -75 661 373 
Q 234 822 234 1631 
Q 234 2469 665 2931 
Q 1097 3394 1784 3394 
Q 2450 3394 2872 2941 
Q 3294 2488 3294 1666 
Q 3294 1616 3291 1516 
L 816 1516 
Q 847 969 1125 678 
Q 1403 388 1819 388 
Q 2128 388 2347 550 
Q 2566 713 2694 1069 
z
M 847 1978 
L 2700 1978 
Q 2663 2397 2488 2606 
Q 2219 2931 1791 2931 
Q 1403 2931 1139 2672 
Q 875 2413 847 1978 
z
" transform="scale(0.015625)"/>
       <path id="ArialMT-66" d="M 556 0 
L 556 2881 
L 59 2881 
L 59 3319 
L 556 3319 
L 556 3672 
Q 556 4006 616 4169 
Q 697 4388 901 4523 
Q 1106 4659 1475 4659 
Q 1713 4659 2000 4603 
L 1916 4113 
Q 1741 4144 1584 4144 
Q 1328 4144 1222 4034 
Q 1116 3925 1116 3625 
L 1116 3319 
L 1763 3319 
L 1763 2881 
L 1116 2881 
L 1116 0 
L 556 0 
z
" transform="scale(0.015625)"/>
       <path id="ArialMT-6f" d="M 213 1659 
Q 213 2581 725 3025 
Q 1153 3394 1769 3394 
Q 2453 3394 2887 2945 
Q 3322 2497 3322 1706 
Q 3322 1066 3130 698 
Q 2938 331 2570 128 
Q 2203 -75 1769 -75 
Q 1072 -75 642 372 
Q 213 819 213 1659 
z
M 791 1659 
Q 791 1022 1069 705 
Q 1347 388 1769 388 
Q 2188 388 2466 706 
Q 2744 1025 2744 1678 
Q 2744 2294 2464 2611 
Q 2184 2928 1769 2928 
Q 1347 2928 1069 2612 
Q 791 2297 791 1659 
z
" transform="scale(0.015625)"/>
       <path id="ArialMT-6d" d="M 422 0 
L 422 3319 
L 925 3319 
L 925 2853 
Q 1081 3097 1340 3245 
Q 1600 3394 1931 3394 
Q 2300 3394 2536 3241 
Q 2772 3088 2869 2813 
Q 3263 3394 3894 3394 
Q 4388 3394 4653 3120 
Q 4919 2847 4919 2278 
L 4919 0 
L 4359 0 
L 4359 2091 
Q 4359 2428 4304 2576 
Q 4250 2725 4106 2815 
Q 3963 2906 3769 2906 
Q 3419 2906 3187 2673 
Q 2956 2441 2956 1928 
L 2956 0 
L 2394 0 
L 2394 2156 
Q 2394 2531 2256 2718 
Q 2119 2906 1806 2906 
Q 1569 2906 1367 2781 
Q 1166 2656 1075 2415 
Q 984 2175 984 1722 
L 984 0 
L 422 0 
z
" transform="scale(0.015625)"/>
       <path id="ArialMT-6e" d="M 422 0 
L 422 3319 
L 928 3319 
L 928 2847 
Q 1294 3394 1984 3394 
Q 2284 3394 2536 3286 
Q 2788 3178 2913 3003 
Q 3038 2828 3088 2588 
Q 3119 2431 3119 2041 
L 3119 0 
L 2556 0 
L 2556 2019 
Q 2556 2363 2490 2533 
Q 2425 2703 2258 2804 
Q 2091 2906 1866 2906 
Q 1506 2906 1245 2678 
Q 984 2450 984 1813 
L 984 0 
L 422 0 
z
" transform="scale(0.015625)"/>
       <path id="ArialMT-63" d="M 2588 1216 
L 3141 1144 
Q 3050 572 2676 248 
Q 2303 -75 1759 -75 
Q 1078 -75 664 370 
Q 250 816 250 1647 
Q 250 2184 428 2587 
Q 606 2991 970 3192 
Q 1334 3394 1763 3394 
Q 2303 3394 2647 3120 
Q 2991 2847 3088 2344 
L 2541 2259 
Q 2463 2594 2264 2762 
Q 2066 2931 1784 2931 
Q 1359 2931 1093 2626 
Q 828 2322 828 1663 
Q 828 994 1084 691 
Q 1341 388 1753 388 
Q 2084 388 2306 591 
Q 2528 794 2588 1216 
z
" transform="scale(0.015625)"/>
      </defs>
      <use xlink:href="#ArialMT-50"/>
      <use xlink:href="#ArialMT-65" x="66.699219"/>
      <use xlink:href="#ArialMT-72" x="122.314453"/>
      <use xlink:href="#ArialMT-66" x="155.615234"/>
      <use xlink:href="#ArialMT-6f" x="183.398438"/>
      <use xlink:href="#ArialMT-72" x="239.013672"/>
      <use xlink:href="#ArialMT-6d" x="272.314453"/>
      <use xlink:href="#ArialMT-61" x="355.615234"/>
      <use xlink:href="#ArialMT-6e" x="411.230469"/>
      <use xlink:href="#ArialMT-63" x="466.845703"/>
      <use xlink:href="#ArialMT-65" x="516.845703"/>
     </g>
    </g>
   </g>
   <g id="PolyCollection_1">
    <defs>
     <path id="me299752bcf" d="M 100.845 -77.822727 
L 100.845 -86.302979 
L 103.02151 -101.594247 
L 105.19802 -106.262368 
L 107.37453 -105.900157 
L 109.55104 -118.794881 
L 111.72755 -123.456322 
L 113.90406 -125.737272 
L 116.08057 -127.426713 
L 118.257081 -130.71708 
L 120.433591 -139.352876 
L 122.610101 -141.009241 
L 124.786611 -136.43857 
L 126.963121 -149.033228 
L 129.139631 -149.343614 
L 131.316141 -150.401752 
L 133.492651 -153.93121 
L 135.669161 -156.643084 
L 137.845671 -166.490394 
L 140.022181 -173.261039 
L 142.198691 -168.065789 
L 144.375201 -170.597134 
L 146.551711 -179.362423 
L 148.728221 -179.636551 
L 150.904732 -184.879134 
L 153.081242 -188.228749 
L 155.257752 -188.286075 
L 157.434262 -188.296243 
L 159.610772 -189.487324 
L 161.787282 -190.99616 
L 163.963792 -197.700177 
L 166.140302 -200.934315 
L 168.316812 -199.943814 
L 170.493322 -204.569419 
L 172.669832 -206.350542 
L 174.846342 -200.67816 
L 177.022852 -210.489108 
L 179.199362 -211.502292 
L 181.375872 -209.774509 
L 183.552383 -211.798711 
L 185.728893 -218.987873 
L 187.905403 -221.54801 
L 190.081913 -220.603849 
L 192.258423 -215.697723 
L 194.434933 -221.781604 
L 196.611443 -226.797576 
L 198.787953 -233.203199 
L 200.964463 -232.846057 
L 203.140973 -231.516226 
L 205.317483 -232.063735 
L 207.493993 -235.058888 
L 209.670503 -233.069117 
L 211.847013 -233.984879 
L 214.023523 -235.690071 
L 216.200034 -236.174354 
L 218.376544 -235.243497 
L 220.553054 -235.366475 
L 222.729564 -237.651058 
L 224.906074 -237.018973 
L 227.082584 -239.366377 
L 229.259094 -243.661408 
L 231.435604 -239.042222 
L 233.612114 -244.535086 
L 235.788624 -245.693372 
L 237.965134 -242.824785 
L 240.141644 -247.252708 
L 242.318154 -243.14649 
L 244.494664 -243.65544 
L 246.671174 -247.875278 
L 248.847685 -252.468743 
L 251.024195 -259.277327 
L 253.200705 -252.787413 
L 255.377215 -254.100145 
L 257.553725 -255.804618 
L 259.730235 -257.928634 
L 261.906745 -258.59581 
L 264.083255 -256.93328 
L 266.259765 -259.818683 
L 268.436275 -259.608053 
L 270.612785 -261.408979 
L 272.789295 -262.851107 
L 274.965805 -267.05838 
L 277.142315 -265.740142 
L 279.318826 -265.775074 
L 281.495336 -265.703266 
L 283.671846 -266.598536 
L 285.848356 -265.026104 
L 288.024866 -263.634636 
L 290.201376 -265.787179 
L 292.377886 -269.478674 
L 294.554396 -268.213591 
L 296.730906 -273.545649 
L 298.907416 -268.519202 
L 301.083926 -274.500632 
L 303.260436 -271.662974 
L 305.436946 -275.909871 
L 307.613456 -274.329408 
L 309.789966 -270.9057 
L 311.966477 -274.664179 
L 314.142987 -274.327203 
L 316.319497 -276.055505 
L 318.496007 -277.570328 
L 320.672517 -277.698419 
L 322.849027 -276.947785 
L 325.025537 -282.850135 
L 327.202047 -275.581908 
L 329.378557 -280.492083 
L 331.555067 -277.470067 
L 333.731577 -282.182075 
L 335.908087 -282.205427 
L 338.084597 -280.777824 
L 340.261107 -280.746512 
L 342.437617 -280.535883 
L 344.614128 -283.395439 
L 346.790638 -282.043523 
L 348.967148 -282.67323 
L 351.143658 -282.659787 
L 353.320168 -285.473295 
L 355.496678 -282.173251 
L 357.673188 -282.7549 
L 359.849698 -285.534841 
L 362.026208 -280.797554 
L 364.202718 -284.001682 
L 366.379228 -287.303001 
L 368.555738 -281.122977 
L 370.732248 -287.102633 
L 372.908758 -284.194241 
L 375.085268 -286.024224 
L 377.261779 -285.309011 
L 379.438289 -286.456722 
L 381.614799 -288.384911 
L 383.791309 -289.478861 
L 385.967819 -285.763324 
L 388.144329 -286.126161 
L 390.320839 -287.482956 
L 392.497349 -292.333134 
L 394.673859 -292.375652 
L 396.850369 -283.083894 
L 399.026879 -290.137085 
L 401.203389 -292.899529 
L 403.379899 -291.983252 
L 405.556409 -292.965066 
L 407.732919 -290.963299 
L 409.90943 -292.071142 
L 412.08594 -295.397844 
L 414.26245 -293.538219 
L 416.43896 -293.268351 
L 418.61547 -294.363326 
L 420.79198 -295.443256 
L 422.96849 -296.277273 
L 425.145 -291.944442 
L 425.145 -283.46419 
L 425.145 -283.46419 
L 422.96849 -287.797021 
L 420.79198 -286.963004 
L 418.61547 -285.883074 
L 416.43896 -284.788099 
L 414.26245 -285.057967 
L 412.08594 -286.917592 
L 409.90943 -283.59089 
L 407.732919 -282.483048 
L 405.556409 -284.484815 
L 403.379899 -283.503 
L 401.203389 -284.419277 
L 399.026879 -281.656833 
L 396.850369 -274.603643 
L 394.673859 -283.895401 
L 392.497349 -283.852882 
L 390.320839 -279.002704 
L 388.144329 -277.645909 
L 385.967819 -277.283073 
L 383.791309 -280.99861 
L 381.614799 -279.904659 
L 379.438289 -277.976471 
L 377.261779 -276.82876 
L 375.085268 -277.543973 
L 372.908758 -275.71399 
L 370.732248 -278.622382 
L 368.555738 -272.642725 
L 366.379228 -278.82275 
L 364.202718 -275.521431 
L 362.026208 -272.317303 
L 359.849698 -277.054589 
L 357.673188 -274.274649 
L 355.496678 -273.693 
L 353.320168 -276.993043 
L 351.143658 -274.179535 
L 348.967148 -274.192979 
L 346.790638 -273.563272 
L 344.614128 -274.915188 
L 342.437617 -272.055631 
L 340.261107 -272.266261 
L 338.084597 -272.297573 
L 335.908087 -273.725175 
L 333.731577 -273.701823 
L 331.555067 -268.989816 
L 329.378557 -272.011831 
L 327.202047 -267.101656 
L 325.025537 -274.369884 
L 322.849027 -268.467533 
L 320.672517 -269.218168 
L 318.496007 -269.090076 
L 316.319497 -267.575254 
L 314.142987 -265.846951 
L 311.966477 -266.183928 
L 309.789966 -262.425449 
L 307.613456 -265.849156 
L 305.436946 -267.429619 
L 303.260436 -263.182723 
L 301.083926 -266.020381 
L 298.907416 -260.038951 
L 296.730906 -265.065398 
L 294.554396 -259.733339 
L 292.377886 -260.998423 
L 290.201376 -257.306928 
L 288.024866 -255.154385 
L 285.848356 -256.545853 
L 283.671846 -258.118284 
L 281.495336 -257.223014 
L 279.318826 -257.294822 
L 277.142315 -257.259891 
L 274.965805 -258.578128 
L 272.789295 -254.370856 
L 270.612785 -252.928728 
L 268.436275 -251.127801 
L 266.259765 -251.338432 
L 264.083255 -248.453029 
L 261.906745 -250.115558 
L 259.730235 -249.448383 
L 257.553725 -247.324366 
L 255.377215 -245.619893 
L 253.200705 -244.307161 
L 251.024195 -250.797076 
L 248.847685 -243.988492 
L 246.671174 -239.395026 
L 244.494664 -235.175188 
L 242.318154 -234.666239 
L 240.141644 -238.772456 
L 237.965134 -234.344533 
L 235.788624 -237.213121 
L 233.612114 -236.054835 
L 231.435604 -230.56197 
L 229.259094 -235.181157 
L 227.082584 -230.886126 
L 224.906074 -228.538722 
L 222.729564 -229.170807 
L 220.553054 -226.886224 
L 218.376544 -226.763246 
L 216.200034 -227.694102 
L 214.023523 -227.209819 
L 211.847013 -225.504628 
L 209.670503 -224.588866 
L 207.493993 -226.578636 
L 205.317483 -223.583484 
L 203.140973 -223.035974 
L 200.964463 -224.365805 
L 198.787953 -224.722948 
L 196.611443 -218.317325 
L 194.434933 -213.301352 
L 192.258423 -207.217472 
L 190.081913 -212.123598 
L 187.905403 -213.067759 
L 185.728893 -210.507621 
L 183.552383 -203.318459 
L 181.375872 -201.294258 
L 179.199362 -203.022041 
L 177.022852 -202.008857 
L 174.846342 -192.197908 
L 172.669832 -197.87029 
L 170.493322 -196.089167 
L 168.316812 -191.463563 
L 166.140302 -192.454064 
L 163.963792 -189.219926 
L 161.787282 -182.515909 
L 159.610772 -181.007072 
L 157.434262 -179.815992 
L 155.257752 -179.805823 
L 153.081242 -179.748497 
L 150.904732 -176.398883 
L 148.728221 -171.156299 
L 146.551711 -170.882171 
L 144.375201 -162.116882 
L 142.198691 -159.585538 
L 140.022181 -164.780788 
L 137.845671 -158.010143 
L 135.669161 -148.162832 
L 133.492651 -145.450959 
L 131.316141 -141.9215 
L 129.139631 -140.863362 
L 126.963121 -140.552976 
L 124.786611 -127.958319 
L 122.610101 -132.528989 
L 120.433591 -130.872624 
L 118.257081 -122.236829 
L 116.08057 -118.946461 
L 113.90406 -117.257021 
L 111.72755 -114.97607 
L 109.55104 -110.314629 
L 107.37453 -97.419905 
L 105.19802 -97.782116 
L 103.02151 -93.113995 
L 100.845 -77.822727 
z
" style="stroke: #1a1a1a; stroke-opacity: 0.2; stroke-width: 1.5"/>
    </defs>
    <g clip-path="url(#pe55c6ad450)">
     <use xlink:href="#me299752bcf" x="0" y="345.6" style="fill: #1a1a1a; fill-opacity: 0.2; stroke: #1a1a1a; stroke-opacity: 0.2; stroke-width: 1.5"/>
    </g>
   </g>
   <g id="line2d_12">
    <path d="M 100.845 263.537147 
L 103.02151 248.245879 
L 105.19802 243.577758 
L 107.37453 243.939969 
L 109.55104 231.045245 
L 111.72755 226.383804 
L 113.90406 224.102854 
L 116.08057 222.413413 
L 118.257081 219.123046 
L 120.433591 210.48725 
L 122.610101 208.830885 
L 124.786611 213.401556 
L 126.963121 200.806898 
L 129.139631 200.496512 
L 131.316141 199.438374 
L 133.492651 195.908915 
L 135.669161 193.197042 
L 137.845671 183.349731 
L 140.022181 176.579086 
L 142.198691 181.774337 
L 144.375201 179.242992 
L 146.551711 170.477703 
L 148.728221 170.203575 
L 150.904732 164.960992 
L 153.081242 161.611377 
L 157.434262 161.543883 
L 159.610772 160.352802 
L 161.787282 158.843966 
L 163.963792 152.139949 
L 166.140302 148.90581 
L 168.316812 149.896312 
L 170.493322 145.270707 
L 172.669832 143.489584 
L 174.846342 149.161966 
L 177.022852 139.351018 
L 179.199362 138.337833 
L 181.375872 140.065616 
L 183.552383 138.041415 
L 185.728893 130.852253 
L 187.905403 128.292115 
L 190.081913 129.236277 
L 192.258423 134.142402 
L 194.434933 128.058522 
L 196.611443 123.042549 
L 198.787953 116.636927 
L 200.964463 116.994069 
L 203.140973 118.3239 
L 205.317483 117.776391 
L 207.493993 114.781238 
L 209.670503 116.771009 
L 211.847013 115.855246 
L 214.023523 114.150055 
L 216.200034 113.665772 
L 218.376544 114.596628 
L 220.553054 114.47365 
L 222.729564 112.189068 
L 224.906074 112.821152 
L 227.082584 110.473749 
L 229.259094 106.178717 
L 231.435604 110.797904 
L 233.612114 105.305039 
L 235.788624 104.146753 
L 237.965134 107.015341 
L 240.141644 102.587418 
L 242.318154 106.693636 
L 244.494664 106.184686 
L 246.671174 101.964848 
L 248.847685 97.371383 
L 251.024195 90.562798 
L 253.200705 97.052713 
L 255.377215 95.739981 
L 257.553725 94.035508 
L 259.730235 91.911491 
L 261.906745 91.244316 
L 264.083255 92.906845 
L 266.259765 90.021443 
L 268.436275 90.232073 
L 270.612785 88.431147 
L 272.789295 86.989018 
L 274.965805 82.781746 
L 277.142315 84.099983 
L 281.495336 84.13686 
L 283.671846 83.24159 
L 285.848356 84.814022 
L 288.024866 86.205489 
L 290.201376 84.052946 
L 292.377886 80.361452 
L 294.554396 81.626535 
L 296.730906 76.294476 
L 298.907416 81.320924 
L 301.083926 75.339494 
L 303.260436 78.177152 
L 305.436946 73.930255 
L 307.613456 75.510718 
L 309.789966 78.934426 
L 311.966477 75.175946 
L 314.142987 75.512923 
L 316.319497 73.784621 
L 318.496007 72.269798 
L 320.672517 72.141706 
L 322.849027 72.892341 
L 325.025537 66.98999 
L 327.202047 74.258218 
L 329.378557 69.348043 
L 331.555067 72.370058 
L 333.731577 67.658051 
L 335.908087 67.634699 
L 338.084597 69.062301 
L 340.261107 69.093614 
L 342.437617 69.304243 
L 344.614128 66.444686 
L 346.790638 67.796603 
L 348.967148 67.166895 
L 351.143658 67.180339 
L 353.320168 64.366831 
L 355.496678 67.666874 
L 357.673188 67.085225 
L 359.849698 64.305285 
L 362.026208 69.042571 
L 366.379228 62.537125 
L 368.555738 68.717149 
L 370.732248 62.737493 
L 372.908758 65.645885 
L 375.085268 63.815902 
L 377.261779 64.531115 
L 379.438289 63.383403 
L 381.614799 61.455215 
L 383.791309 60.361265 
L 385.967819 64.076802 
L 388.144329 63.713965 
L 390.320839 62.35717 
L 392.497349 57.506992 
L 394.673859 57.464473 
L 396.850369 66.756231 
L 399.026879 59.703041 
L 401.203389 56.940597 
L 403.379899 57.856874 
L 405.556409 56.875059 
L 407.732919 58.876826 
L 409.90943 57.768984 
L 412.08594 54.442282 
L 414.26245 56.301907 
L 416.43896 56.571775 
L 420.79198 54.39687 
L 422.96849 53.562853 
L 425.145 57.895684 
L 425.145 57.895684 
" clip-path="url(#pe55c6ad450)" style="fill: none; stroke: #1a1a1a; stroke-width: 2.25; stroke-linecap: round"/>
   </g>
   <g id="patch_3">
    <path d="M 84.63 278.7 
L 84.63 38.4 
" style="fill: none; stroke: #262626; stroke-width: 1.875; stroke-linejoin: miter; stroke-linecap: square"/>
   </g>
   <g id="patch_4">
    <path d="M 84.63 278.7 
L 441.36 278.7 
" style="fill: none; stroke: #262626; stroke-width: 1.875; stroke-linejoin: miter; stroke-linecap: square"/>
   </g>
   <g id="text_14">
    <!-- Animal task performance -->
    <g style="fill: #262626" transform="translate(163.460625 32.4) scale(0.18 -0.18)">
     <defs>
      <path id="ArialMT-41" d="M -9 0 
L 1750 4581 
L 2403 4581 
L 4278 0 
L 3588 0 
L 3053 1388 
L 1138 1388 
L 634 0 
L -9 0 
z
M 1313 1881 
L 2866 1881 
L 2388 3150 
Q 2169 3728 2063 4100 
Q 1975 3659 1816 3225 
L 1313 1881 
z
" transform="scale(0.015625)"/>
      <path id="ArialMT-20" transform="scale(0.015625)"/>
      <path id="ArialMT-74" d="M 1650 503 
L 1731 6 
Q 1494 -44 1306 -44 
Q 1000 -44 831 53 
Q 663 150 594 308 
Q 525 466 525 972 
L 525 2881 
L 113 2881 
L 113 3319 
L 525 3319 
L 525 4141 
L 1084 4478 
L 1084 3319 
L 1650 3319 
L 1650 2881 
L 1084 2881 
L 1084 941 
Q 1084 700 1114 631 
Q 1144 563 1211 522 
Q 1278 481 1403 481 
Q 1497 481 1650 503 
z
" transform="scale(0.015625)"/>
      <path id="ArialMT-6b" d="M 425 0 
L 425 4581 
L 988 4581 
L 988 1969 
L 2319 3319 
L 3047 3319 
L 1778 2088 
L 3175 0 
L 2481 0 
L 1384 1697 
L 988 1316 
L 988 0 
L 425 0 
z
" transform="scale(0.015625)"/>
      <path id="ArialMT-70" d="M 422 -1272 
L 422 3319 
L 934 3319 
L 934 2888 
Q 1116 3141 1344 3267 
Q 1572 3394 1897 3394 
Q 2322 3394 2647 3175 
Q 2972 2956 3137 2557 
Q 3303 2159 3303 1684 
Q 3303 1175 3120 767 
Q 2938 359 2589 142 
Q 2241 -75 1856 -75 
Q 1575 -75 1351 44 
Q 1128 163 984 344 
L 984 -1272 
L 422 -1272 
z
M 931 1641 
Q 931 1000 1190 694 
Q 1450 388 1819 388 
Q 2194 388 2461 705 
Q 2728 1022 2728 1688 
Q 2728 2322 2467 2637 
Q 2206 2953 1844 2953 
Q 1484 2953 1207 2617 
Q 931 2281 931 1641 
z
" transform="scale(0.015625)"/>
     </defs>
     <use xlink:href="#ArialMT-41"/>
     <use xlink:href="#ArialMT-6e" x="66.699219"/>
     <use xlink:href="#ArialMT-69" x="122.314453"/>
     <use xlink:href="#ArialMT-6d" x="144.53125"/>
     <use xlink:href="#ArialMT-61" x="227.832031"/>
     <use xlink:href="#ArialMT-6c" x="283.447266"/>
     <use xlink:href="#ArialMT-20" x="305.664062"/>
     <use xlink:href="#ArialMT-74" x="333.447266"/>
     <use xlink:href="#ArialMT-61" x="361.230469"/>
     <use xlink:href="#ArialMT-73" x="416.845703"/>
     <use xlink:href="#ArialMT-6b" x="466.845703"/>
     <use xlink:href="#ArialMT-20" x="516.845703"/>
     <use xlink:href="#ArialMT-70" x="544.628906"/>
     <use xlink:href="#ArialMT-65" x="600.244141"/>
     <use xlink:href="#ArialMT-72" x="655.859375"/>
     <use xlink:href="#ArialMT-66" x="689.160156"/>
     <use xlink:href="#ArialMT-6f" x="716.943359"/>
     <use xlink:href="#ArialMT-72" x="772.558594"/>
     <use xlink:href="#ArialMT-6d" x="805.859375"/>
     <use xlink:href="#ArialMT-61" x="889.160156"/>
     <use xlink:href="#ArialMT-6e" x="944.775391"/>
     <use xlink:href="#ArialMT-63" x="1000.390625"/>
     <use xlink:href="#ArialMT-65" x="1050.390625"/>
    </g>
   </g>
  </g>
 </g>
 <defs>
  <clipPath id="pe55c6ad450">
   <rect x="84.63" y="38.4" width="356.73" height="240.3"/>
  </clipPath>
 </defs>
</svg>
